<svg width="31" height="31" viewBox="0 0 31 31" fill="none" xmlns="http://www.w3.org/2000/svg">
    <g clip-path="url(#clip0_640_50)">
        <rect width="31" height="31" rx="9" fill="#D9D9D9"/>
        <path d="M6.54919 11.9584C6.03159 11.9583 5.52031 12.0772 5.05603 12.306C4.59189 12.5348 4.18663 12.8673 3.87146 13.2777L3.73181 13.474L2.35876 15.5345C2.03604 16.0184 1.84419 16.5776 1.80115 17.1576L1.79138 17.4261V25.6664C1.79122 26.192 1.98969 26.699 2.34705 27.0844C2.70404 27.4693 3.19369 27.7037 3.71716 27.7435L3.89197 27.7504H4.44861L4.5658 28.0834C4.79261 28.725 5.20866 29.2835 5.75818 29.6849C6.3076 30.0861 6.96588 30.3115 7.64587 30.3324C8.32593 30.3532 8.99666 30.1689 9.5697 29.8021C10.1429 29.4353 10.592 28.9032 10.8578 28.2767L10.9408 28.0658L11.0658 27.7504H19.9496L20.0668 28.0834C20.2938 28.7246 20.7098 29.2819 21.2592 29.683C21.8085 30.0841 22.466 30.3105 23.1459 30.3314C23.8258 30.3523 24.4967 30.1668 25.0697 29.8002C25.5709 29.4795 25.9775 29.0331 26.2494 28.5072L26.3578 28.2767L26.4408 28.0658L26.5658 27.7504H27.1254C27.6508 27.7505 28.157 27.5519 28.5424 27.1947C28.9278 26.8373 29.1641 26.3468 29.2035 25.8226L29.2084 25.6498V15.3334C29.2084 14.4725 28.879 13.6443 28.2885 13.0179C27.6979 12.3918 26.8908 12.0148 26.0316 11.9642L26.0326 11.9633L25.8187 11.9584H6.54919ZM23.2504 25.1664C23.7254 25.1665 24.181 25.3558 24.517 25.6918C24.8529 26.0278 25.0414 26.4833 25.0414 26.9584C25.0414 27.4335 24.8529 27.889 24.517 28.225C24.181 28.5609 23.7254 28.7503 23.2504 28.7504C22.7752 28.7504 22.3188 28.561 21.9828 28.225C21.647 27.889 21.4584 27.4334 21.4584 26.9584C21.4584 26.4833 21.647 26.0277 21.9828 25.6918C22.3188 25.3558 22.7752 25.1664 23.2504 25.1664ZM7.75037 25.1664C8.22543 25.1665 8.68104 25.3558 9.01697 25.6918C9.35287 26.0278 9.54138 26.4833 9.54138 26.9584C9.54138 27.4335 9.35287 27.889 9.01697 28.225C8.68104 28.5609 8.22543 28.7503 7.75037 28.7504C7.27519 28.7504 6.81879 28.561 6.48279 28.225C6.14699 27.889 5.95837 27.4334 5.95837 26.9584C5.95837 26.4833 6.14699 26.0277 6.48279 25.6918C6.81879 25.3558 7.27519 25.1664 7.75037 25.1664ZM8.25037 19.7084H3.37537V17.4076C3.37535 17.0538 3.47986 16.7078 3.67615 16.4135L5.05798 14.3392C5.22165 14.0939 5.44345 13.8924 5.70349 13.7533C5.96353 13.6142 6.2543 13.5413 6.54919 13.5414H8.25037V19.7084ZM25.9974 13.5492C26.3769 13.5841 26.7369 13.7394 27.0238 13.9945C27.3516 14.286 27.5613 14.6877 27.6127 15.1234L27.6146 15.1381V15.1527L27.6244 15.3031L27.6254 15.3187V18.4164H22.7504V13.5414H25.8334L25.9974 13.5492ZM21.1664 18.4164H16.2914V13.5414H21.1664V18.4164ZM14.7084 18.4164H9.83337V13.5414H14.7084V18.4164Z" fill="black" stroke="black"/>
        <g clip-path="url(#clip1_640_50)">
            <path d="M15.0394 0.957188L13.2684 4.5L11.25 4.5C10.8522 4.5 10.4706 4.65804 10.1893 4.93934C9.90804 5.22065 9.75 5.60218 9.75 6C9.75 6.39783 9.90804 6.77936 10.1893 7.06066C10.4706 7.34197 10.8522 7.5 11.25 7.5L13.2684 7.5L15.0394 11.0428C15.0706 11.1051 15.1185 11.1575 15.1777 11.1941C15.237 11.2307 15.3053 11.25 15.375 11.25L16.875 11.25C16.9305 11.25 16.9852 11.2376 17.0354 11.2139C17.0855 11.1901 17.1297 11.1556 17.1649 11.1126C17.2 11.0697 17.2252 11.0196 17.2386 10.9657C17.2521 10.9119 17.2534 10.8558 17.2425 10.8014L16.5825 7.5L17.4698 7.5L18.1097 8.14031C18.1445 8.17513 18.1859 8.20273 18.2314 8.22155C18.277 8.24037 18.3257 8.25004 18.375 8.25L19.875 8.25C19.9365 8.25011 19.997 8.2351 20.0513 8.20631C20.1056 8.17752 20.152 8.13583 20.1864 8.0849C20.2208 8.03397 20.2422 7.97536 20.2486 7.91424C20.255 7.85312 20.2463 7.79135 20.2233 7.73437L19.5291 6L20.2233 4.26563C20.2463 4.20865 20.255 4.14688 20.2486 4.08576C20.2422 4.02464 20.2208 3.96603 20.1864 3.9151C20.152 3.86417 20.1056 3.82247 20.0513 3.79369C19.997 3.7649 19.9365 3.74989 19.875 3.75L18.375 3.75C18.3257 3.74996 18.277 3.75963 18.2314 3.77845C18.1859 3.79727 18.1445 3.82487 18.1097 3.85969L17.4698 4.5L16.5825 4.5L17.2425 1.19859C17.2534 1.1442 17.2521 1.08808 17.2386 1.03426C17.2252 0.980436 17.2 0.930263 17.1649 0.887355C17.1297 0.844446 17.0855 0.80987 17.0354 0.786119C16.9852 0.762367 16.9305 0.750031 16.875 0.750001L15.375 0.750001C15.3053 0.749951 15.237 0.769309 15.1777 0.805904C15.1185 0.8425 15.0706 0.894886 15.0394 0.957188ZM16.4175 1.5L15.7575 4.80141C15.7466 4.8558 15.7479 4.91192 15.7614 4.96574C15.7748 5.01957 15.8 5.06974 15.8351 5.11265C15.8703 5.15555 15.9145 5.19013 15.9646 5.21388C16.0148 5.23763 16.0695 5.24997 16.125 5.25L17.625 5.25C17.6743 5.25004 17.723 5.24037 17.7686 5.22155C17.8141 5.20273 17.8555 5.17513 17.8903 5.14031L18.5302 4.5L19.3209 4.5L18.7767 5.85938C18.741 5.94875 18.741 6.04844 18.7767 6.13781L19.3209 7.5L18.5302 7.5L17.8903 6.85969C17.8555 6.82487 17.8141 6.79727 17.7686 6.77845C17.723 6.75963 17.6743 6.74996 17.625 6.75L16.125 6.75C16.0695 6.75003 16.0148 6.76237 15.9646 6.78612C15.9145 6.80987 15.8703 6.84445 15.8351 6.88735C15.8 6.93026 15.7748 6.98044 15.7614 7.03426C15.7479 7.08808 15.7466 7.1442 15.7575 7.19859L16.4175 10.5L15.6066 10.5L13.8356 6.95719C13.8044 6.89489 13.7565 6.8425 13.6973 6.8059C13.638 6.76931 13.5697 6.74995 13.5 6.75L11.25 6.75C11.0511 6.75 10.8603 6.67098 10.7197 6.53033C10.579 6.38968 10.5 6.19891 10.5 6C10.5 5.80109 10.579 5.61032 10.7197 5.46967C10.8603 5.32902 11.0511 5.25 11.25 5.25L13.5 5.25C13.5697 5.25005 13.638 5.23069 13.6973 5.1941C13.7565 5.1575 13.8044 5.10512 13.8356 5.04281L15.6066 1.5L16.4175 1.5Z" fill="black"/>
        </g>
    </g>
    <defs>
        <clipPath id="clip0_640_50">
            <rect width="31" height="31" fill="white" transform="matrix(-1 0 0 1 31 0)"/>
        </clipPath>
        <clipPath id="clip1_640_50">
            <rect width="12" height="12" fill="white" transform="translate(9 12) rotate(-90)"/>
        </clipPath>
    </defs>
</svg>
