<svg width="18" height="18" viewBox="0 0 18 18" fill="none" xmlns="http://www.w3.org/2000/svg">
<g clip-path="url(#clip0_1224_1363)">
<path d="M3.8025 4.25L3.80242 4.25C3.53403 4.24996 3.26923 4.31164 3.02849 4.43029C2.7903 4.54769 2.58198 4.71773 2.41928 4.92751L2.34229 5.0357L1.54402 6.2331L1.54397 6.23319C1.37823 6.48168 1.27888 6.76842 1.25531 7.06608L1.25 7.21351V12V12.0002C1.24992 12.2524 1.3452 12.4954 1.51675 12.6804C1.68616 12.8631 1.91759 12.9759 2.16564 12.9969L2.25832 13H2.3775H2.73107L2.84891 13.3334C2.96652 13.666 3.18192 13.9554 3.46687 14.1636C3.75182 14.3717 4.09302 14.4889 4.44573 14.4998C4.79844 14.5106 5.14619 14.4146 5.4434 14.2244C5.73897 14.0352 5.97083 13.7616 6.10894 13.439L6.15752 13.3162L6.28252 13H6.6225H11.3782H11.7316L11.8496 13.3331C11.9673 13.6657 12.1827 13.9549 12.4676 14.1629C12.7525 14.3709 13.0936 14.4879 13.4461 14.4988C13.7987 14.5096 14.1463 14.4137 14.4435 14.2236C14.7389 14.0346 14.9708 13.7612 15.109 13.4389L15.1575 13.3162L15.2825 13H15.6225H15.75H15.7502C16.0024 13.0001 16.2454 12.9048 16.4304 12.7333C16.6131 12.5638 16.7259 12.3324 16.7469 12.0844L16.75 11.9917V6V5.99997C16.75 5.5536 16.5795 5.12409 16.2733 4.79932C15.9686 4.47627 15.5527 4.28115 15.1098 4.25332L14.9929 4.25H3.8025ZM1.75 8.25V7.20461C1.75 7.20457 1.75 7.20454 1.75 7.2045C1.74997 6.95762 1.82304 6.71626 1.96 6.51086L2.76239 5.30652L2.76258 5.30625C2.87676 5.13511 3.03142 4.99479 3.21284 4.89776C3.39424 4.80073 3.59678 4.74998 3.8025 4.75C3.80252 4.75 3.80255 4.75 3.80257 4.75H4.5H5V5.25V8.25V8.75H4.5H2.25H1.75V8.25ZM14.3839 11.8661L14.0303 12.2197L14.3839 11.8661C14.6183 12.1005 14.75 12.4185 14.75 12.75C14.75 13.0815 14.6183 13.3995 14.3839 13.6339C14.1495 13.8683 13.8315 14 13.5 14C13.1685 14 12.8505 13.8683 12.6161 13.6339C12.3817 13.3995 12.25 13.0815 12.25 12.75C12.25 12.4185 12.3817 12.1005 12.6161 11.8661C12.8505 11.6317 13.1685 11.5 13.5 11.5C13.8315 11.5 14.1495 11.6317 14.3839 11.8661ZM13 5.25V4.75H13.5H15H15.0001C15.3062 4.75004 15.6017 4.86244 15.8305 5.06589C16.0593 5.26934 16.2055 5.54969 16.2413 5.85375L16.243 5.86803L16.2439 5.88239L16.2491 5.97014L16.25 5.98506V6V7.5V8H15.75H13.5H13V7.5V5.25ZM9.25 5.25V4.75H9.75H12H12.5V5.25V7.5V8H12H9.75H9.25V7.5V5.25ZM5.5 5.25V4.75H6H8.25H8.75V5.25V7.5V8H8.25H6H5.5V7.5V5.25ZM4.5 11.5C4.83152 11.5 5.14946 11.6317 5.38388 11.8661C5.61831 12.1005 5.75 12.4185 5.75 12.75C5.75 13.0815 5.61831 13.3995 5.38388 13.6339C5.14946 13.8683 4.83152 14 4.5 14C4.16848 14 3.85054 13.8683 3.61611 13.6339C3.38169 13.3995 3.25 13.0815 3.25 12.75C3.25 12.4185 3.38169 12.1005 3.61611 11.8661C3.85054 11.6317 4.16848 11.5 4.5 11.5Z" fill="white" stroke="white"/>
</g>
<defs>
<clipPath id="clip0_1224_1363">
<rect width="18" height="18" fill="white" transform="matrix(-1 0 0 1 18 0)"/>
</clipPath>
</defs>
</svg>
