<svg width="32" height="32" viewBox="0 0 32 32" fill="none" xmlns="http://www.w3.org/2000/svg">
    <path d="M31 15.1975C30.997 15.6201 30.8582 16.0305 30.604 16.3681C30.3499 16.7057 29.994 16.9527 29.5887 17.0725L29.5637 17.08L19.8137 19.81L17.0837 29.56L17.0762 29.585C16.9562 29.9901 16.7092 30.346 16.3716 30.6001C16.034 30.8541 15.6238 30.993 15.2012 30.9963H15.1637C14.7494 31.0001 14.3444 30.8733 14.0063 30.6339C13.6681 30.3945 13.414 30.0546 13.28 29.6625L5.125 7.67626C5.12236 7.66978 5.12027 7.66309 5.11875 7.65626C4.99688 7.30231 4.97679 6.92125 5.06078 6.55644C5.14477 6.19163 5.32946 5.85772 5.59384 5.59268C5.85823 5.32765 6.19168 5.14214 6.55628 5.05725C6.92089 4.97237 7.30199 4.99151 7.65625 5.11251L7.67625 5.11876L29.6662 13.2763C30.0644 13.4124 30.4086 13.6722 30.6486 14.0179C30.8885 14.3636 31.0117 14.7769 31 15.1975Z" fill="black"/>
</svg>
