<svg width="24" height="24" viewBox="0 0 24 24" fill="none" xmlns="http://www.w3.org/2000/svg">
    <rect x="0.5" y="0.5" width="23" height="23" rx="3.5" fill="#1967D3" stroke="#1967D3"/>
    <path d="M19.5001 7.01749C19.5026 6.89582 19.4942 5.79666 18.4167 4.73832C17.3559 3.69666 16.2859 3.66666 16.1667 3.66666H7.83008C7.63091 3.66666 6.58591 3.71916 5.57341 4.75166C4.53008 5.81499 4.50008 6.88249 4.50008 6.99999V9.49999H3.66675V12H4.50008V17C4.50008 17.6117 4.83841 18.1442 5.33341 18.4342V19.5C5.33341 19.721 5.42121 19.933 5.57749 20.0892C5.73377 20.2455 5.94573 20.3333 6.16675 20.3333H7.00008C7.2211 20.3333 7.43306 20.2455 7.58934 20.0892C7.74562 19.933 7.83341 19.721 7.83341 19.5V18.6667H16.1667V19.5C16.1667 19.721 16.2545 19.933 16.4108 20.0892C16.5671 20.2455 16.7791 20.3333 17.0001 20.3333H17.8334C18.0544 20.3333 18.2664 20.2455 18.4227 20.0892C18.579 19.933 18.6667 19.721 18.6667 19.5V18.4358C18.9196 18.2908 19.1297 18.0818 19.276 17.8297C19.4223 17.5776 19.4996 17.2914 19.5001 17V12H20.3334V9.49999H19.5001V7.01749ZM7.41675 17C7.08512 16.9999 6.76711 16.868 6.53269 16.6335C6.29827 16.3989 6.16664 16.0808 6.16675 15.7492C6.16686 15.4175 6.2987 15.0995 6.53328 14.8651C6.76786 14.6307 7.08595 14.499 7.41758 14.4992C7.74921 14.4993 8.06722 14.6311 8.30164 14.8657C8.53606 15.1003 8.66769 15.4184 8.66758 15.75C8.66747 16.0816 8.53562 16.3996 8.30105 16.634C8.06647 16.8685 7.74838 17.0001 7.41675 17ZM16.5834 17C16.2518 16.9999 15.9338 16.868 15.6994 16.6335C15.4649 16.3989 15.3333 16.0808 15.3334 15.7492C15.3335 15.4175 15.4654 15.0995 15.6999 14.8651C15.9345 14.6307 16.2526 14.499 16.5842 14.4992C16.9159 14.4993 17.2339 14.6311 17.4683 14.8657C17.7027 15.1003 17.8344 15.4184 17.8342 15.75C17.8341 16.0816 17.7023 16.3996 17.4677 16.634C17.2331 16.8685 16.915 17.0001 16.5834 17ZM17.8334 12.8333H6.15976V7.00064C6.15976 6.44836 6.60747 6.00064 7.15976 6.00064H16.8334C17.3857 6.00064 17.8334 6.44836 17.8334 7.00064V12.8333Z" fill="white"/>
</svg>
