<svg width="24" height="24" viewBox="0 0 24 24" fill="none" xmlns="http://www.w3.org/2000/svg">
<rect x="0.5" y="0.5" width="23" height="23" rx="3.5" fill="black" stroke="black"/>
<path d="M19.5 7.01749C19.5025 6.89582 19.4942 5.79666 18.4167 4.73832C17.3558 3.69666 16.2858 3.66666 16.1667 3.66666H7.82999C7.63082 3.66666 6.58582 3.71916 5.57332 4.75166C4.52999 5.81499 4.49999 6.88249 4.49999 6.99999V9.49999H3.66666V12H4.49999V17C4.49999 17.6117 4.83832 18.1442 5.33332 18.4342V19.5C5.33332 19.721 5.42112 19.933 5.5774 20.0892C5.73368 20.2455 5.94564 20.3333 6.16666 20.3333H6.99999C7.221 20.3333 7.43297 20.2455 7.58925 20.0892C7.74553 19.933 7.83332 19.721 7.83332 19.5V18.6667H16.1667V19.5C16.1667 19.721 16.2545 19.933 16.4107 20.0892C16.567 20.2455 16.779 20.3333 17 20.3333H17.8333C18.0543 20.3333 18.2663 20.2455 18.4226 20.0892C18.5789 19.933 18.6667 19.721 18.6667 19.5V18.4358C18.9195 18.2908 19.1296 18.0818 19.2759 17.8297C19.4222 17.5776 19.4995 17.2914 19.5 17V12H20.3333V9.49999H19.5V7.01749ZM7.41666 17C7.08503 16.9999 6.76702 16.868 6.5326 16.6335C6.29818 16.3989 6.16655 16.0808 6.16666 15.7492C6.16677 15.4175 6.29861 15.0995 6.53319 14.8651C6.76777 14.6307 7.08586 14.499 7.41749 14.4992C7.74912 14.4993 8.06713 14.6311 8.30155 14.8657C8.53597 15.1003 8.6676 15.4184 8.66749 15.75C8.66738 16.0816 8.53553 16.3996 8.30096 16.634C8.06638 16.8685 7.74829 17.0001 7.41666 17ZM16.5833 17C16.2517 16.9999 15.9337 16.868 15.6993 16.6335C15.4648 16.3989 15.3332 16.0808 15.3333 15.7492C15.3334 15.4175 15.4653 15.0995 15.6999 14.8651C15.9344 14.6307 16.2525 14.499 16.5842 14.4992C16.9158 14.4993 17.2338 14.6311 17.4682 14.8657C17.7026 15.1003 17.8343 15.4184 17.8342 15.75C17.834 16.0816 17.7022 16.3996 17.4676 16.634C17.233 16.8685 16.915 17.0001 16.5833 17ZM17.8333 12.8333H6.15966V7.00064C6.15966 6.44836 6.60738 6.00064 7.15966 6.00064H16.8333C17.3856 6.00064 17.8333 6.44836 17.8333 7.00064V12.8333Z" fill="white"/>
</svg>
