<svg width="31" height="31" viewBox="0 0 31 31" fill="none" xmlns="http://www.w3.org/2000/svg">
<g clip-path="url(#clip0_1194_588)">
<path d="M6.54873 6.95831H6.54865C6.03104 6.95823 5.52035 7.0772 5.05607 7.30602C4.59441 7.53356 4.19093 7.86365 3.87647 8.27102L3.73654 8.46765L2.35867 10.5345L2.35861 10.5345C2.0375 11.016 1.84561 11.5719 1.8013 12.1488L1.79165 12.4167V20.6666V20.6668C1.79148 21.1924 1.98998 21.6986 2.34737 22.084C2.70251 22.467 3.18847 22.7025 3.70887 22.7442L3.88333 22.75H4.09456H4.44813L4.56597 23.0833C4.79279 23.7249 5.20818 24.283 5.75771 24.6844C6.30723 25.0858 6.96523 25.3118 7.64542 25.3327C8.32561 25.3536 8.99625 25.1685 9.5694 24.8017C10.1409 24.4359 10.5888 23.9064 10.8549 23.2824L10.9404 23.0662L11.0654 22.75H11.4054H19.5959H19.9493L20.0672 23.0831C20.2942 23.7244 20.7096 24.2821 21.259 24.6832C21.8084 25.0843 22.4662 25.3101 23.1461 25.3311C23.826 25.352 24.4964 25.167 25.0694 24.8004C25.6407 24.4349 26.0887 23.9059 26.355 23.2822L26.4404 23.0662L26.5654 22.75H26.9054H27.125H27.1251C27.6507 22.7501 28.157 22.5516 28.5424 22.1943C28.9254 21.8391 29.1609 21.3531 29.2025 20.8327L29.2083 20.6583V10.3333V10.3333C29.2084 9.47242 28.8794 8.64408 28.2889 8.01774C27.7 7.39318 26.8953 7.01655 26.0386 6.96435L25.8262 6.95831H6.54873ZM3.37498 14.2083V12.4078C3.37498 12.4078 3.37498 12.4078 3.37498 12.4077C3.37492 12.0539 3.47962 11.708 3.67587 11.4136C3.67591 11.4136 3.67594 11.4135 3.67598 11.4135L5.05796 9.33921L5.05814 9.33894C5.2218 9.09363 5.44349 8.89251 5.70353 8.75343C5.96354 8.61436 6.25386 8.54161 6.54873 8.54165C6.54875 8.54165 6.54878 8.54165 6.5488 8.54165H7.74998H8.24998V9.04165V14.2083V14.7083H7.74998H3.87498H3.37498V14.2083ZM9.01688 23.2252L8.66333 22.8717L9.01688 23.2252C8.68088 23.5612 8.22516 23.75 7.74998 23.75C7.2748 23.75 6.81908 23.5612 6.48308 23.2252C6.14708 22.8892 5.95831 22.4335 5.95831 21.9583C5.95831 21.4831 6.14707 21.0274 6.48308 20.6914C6.81908 20.3554 7.2748 20.1666 7.74998 20.1666C8.22516 20.1666 8.68088 20.3554 9.01688 20.6914C9.35288 21.0274 9.54165 21.4831 9.54165 21.9583C9.54165 22.4335 9.35288 22.8892 9.01688 23.2252ZM22.75 9.04165V8.54165H23.25H25.8333H25.8334C26.2722 8.5417 26.6958 8.70282 27.0237 8.99443C27.3516 9.28604 27.5612 9.68786 27.6125 10.1237L27.6142 10.138L27.615 10.1523L27.6241 10.3035L27.625 10.3184V10.3333V12.9166V13.4166H27.125H23.25H22.75V12.9166V9.04165ZM16.2916 9.04165V8.54165H16.7916H20.6666H21.1666V9.04165V12.9166V13.4166H20.6666H16.7916H16.2916V12.9166V9.04165ZM9.83331 9.04165V8.54165H10.3333H14.2083H14.7083V9.04165V12.9166V13.4166H14.2083H10.3333H9.83331V12.9166V9.04165ZM23.25 20.1666C23.7252 20.1666 24.1809 20.3554 24.5169 20.6914C24.8529 21.0274 25.0416 21.4831 25.0416 21.9583C25.0416 22.4335 24.8529 22.8892 24.5169 23.2252C24.1809 23.5612 23.7252 23.75 23.25 23.75C22.7748 23.75 22.3191 23.5612 21.9831 23.2252C21.6471 22.8892 21.4583 22.4335 21.4583 21.9583C21.4583 21.4831 21.6471 21.0274 21.9831 20.6914C22.3191 20.3554 22.7748 20.1666 23.25 20.1666Z" fill="black" stroke="black"/>
</g>
<defs>
<clipPath id="clip0_1194_588">
<rect width="31" height="31" fill="white" transform="matrix(-1 0 0 1 31 0)"/>
</clipPath>
</defs>
</svg>
